<svg width="520" height="320" viewBox="0 0 520 320" fill="none" xmlns="http://www.w3.org/2000/svg">
  <rect width="520" height="320" rx="28" fill="#F4F9FF"/>
  <circle cx="118" cy="96" r="54" fill="#DCEEFF"/>
  <circle cx="408" cy="96" r="54" fill="#DCEEFF"/>
  <rect x="82" y="174" width="128" height="86" rx="18" fill="#2563EB"/>
  <rect x="240" y="174" width="128" height="86" rx="18" fill="#7C3AED"/>
  <rect x="396" y="174" width="42" height="86" rx="18" fill="#0F766E"/>
  <rect x="164" y="58" width="200" height="60" rx="20" fill="white" stroke="#BFDBFE" stroke-width="3"/>
  <path d="M138 128L144 148" stroke="#60A5FA" stroke-width="6" stroke-linecap="round"/>
  <path d="M380 128L374 148" stroke="#A78BFA" stroke-width="6" stroke-linecap="round"/>
  <path d="M202 118H320" stroke="#38BDF8" stroke-width="6" stroke-linecap="round"/>
  <path d="M264 118V174" stroke="#38BDF8" stroke-width="6" stroke-linecap="round"/>
  <rect x="103" y="196" width="20" height="20" rx="5" fill="white"/>
  <rect x="135" y="196" width="20" height="20" rx="5" fill="white"/>
  <rect x="261" y="196" width="20" height="20" rx="5" fill="white"/>
  <rect x="293" y="196" width="20" height="20" rx="5" fill="white"/>
  <circle cx="418" cy="196" r="11" fill="white"/>
  <text x="182" y="82" fill="#1E3A8A" font-family="Arial, sans-serif" font-size="18" font-weight="700">192.168.10.0 /24</text>
  <text x="104" y="250" fill="white" font-family="Arial, sans-serif" font-size="12" font-weight="600">Subred A</text>
  <text x="262" y="250" fill="white" font-family="Arial, sans-serif" font-size="12" font-weight="600">Subred B</text>
  <text x="398" y="250" fill="white" font-family="Arial, sans-serif" font-size="12" font-weight="600">Host</text>
</svg>
